<svg width="172" height="200" viewBox="0 0 172 200" fill="none" xmlns="http://www.w3.org/2000/svg">
<path d="M118.624 11.2922C100.709 7.12257 82.0779 7.12257 64.1629 11.2922C53.816 4.93591 45.9165 2.01464 40.1714 0.781547C37.7194 0.227245 35.2104 -0.0339188 32.697 0.00352232C31.5533 0.0345687 30.4151 0.172173 29.2969 0.414554L29.1503 0.443913L29.0917 0.473273H29.0477L31.0556 7.53422L29.0477 0.487953C28.0181 0.779395 27.0647 1.29314 26.2545 1.9931C25.4442 2.69305 24.7969 3.56223 24.3579 4.53955C20.034 14.2386 19.2103 25.1413 22.0276 35.3816C14.731 44.2388 10.7547 55.3719 10.7866 66.855C10.7866 89.6526 17.499 104.978 28.9451 114.828C36.9618 121.728 46.6933 125.398 56.454 127.497C54.918 132.015 54.339 136.805 54.7539 141.56V150.339C48.789 151.586 44.6561 151.19 41.7103 150.221C38.0317 149.003 35.2031 146.551 32.4918 143.028C31.0745 141.129 29.7538 139.159 28.5348 137.127L27.6994 135.762C26.6445 134.005 25.55 132.272 24.4165 130.565C21.6319 126.44 17.499 121.273 10.816 119.511L3.72256 117.647L0 131.857L7.09339 133.721C8.26585 134.015 9.79005 135.116 12.2962 138.8C13.2608 140.255 14.1893 141.733 15.0808 143.234L16.0774 144.848C17.455 147.08 19.0378 149.546 20.8698 151.953C24.5777 156.798 29.6339 161.686 37.1377 164.167C42.2672 165.87 48.1002 166.281 54.7539 165.253V192.66C54.7539 194.607 55.526 196.474 56.9002 197.85C58.2745 199.227 60.1383 200 62.0818 200H120.705C122.648 200 124.512 199.227 125.886 197.85C127.261 196.474 128.033 194.607 128.033 192.66V140.356C128.033 135.732 127.828 131.49 126.523 127.541C136.24 125.486 145.898 121.816 153.871 114.916C165.302 104.993 172 89.5204 172 66.5907V66.576C171.963 55.1869 167.985 44.1629 160.744 35.3816C163.558 25.1459 162.734 14.2489 158.414 4.55423C157.978 3.57575 157.334 2.70468 156.526 2.0022C155.719 1.29972 154.767 0.782876 153.739 0.487953L151.731 7.53422C153.739 0.487954 153.724 0.487953 153.71 0.487953L153.68 0.473273L153.622 0.443913L153.49 0.414554C153.128 0.320282 152.761 0.246764 152.391 0.194359C151.623 0.0821622 150.85 0.018424 150.075 0.00352232C147.562 -0.0336428 145.053 0.227518 142.601 0.781547C136.87 2.01464 128.971 4.93591 118.624 11.2922Z" fill="#E0E0E0"/>
</svg>
