<svg width="212" height="200" viewBox="0 0 212 200" fill="none" xmlns="http://www.w3.org/2000/svg">
<path d="M44.4911 22.2321C44.4881 28.1255 42.1416 33.7763 37.9677 37.9415C33.7937 42.1066 28.1343 44.4449 22.2344 44.442C16.3345 44.439 10.6775 42.0951 6.5077 37.9257C2.33794 33.7564 -0.00294716 28.1033 2.78471e-06 22.2099C0.00295273 16.3165 2.3495 10.6657 6.52344 6.50052C10.6974 2.33536 16.3568 -0.0029439 22.2567 2.78164e-06C28.1565 0.00294947 33.8136 2.34691 37.9834 6.51624C42.1531 10.6856 44.494 16.3387 44.4911 22.2321ZM45.1585 60.8966H0.667368V200H45.1585V60.8966ZM115.454 60.8966H71.1857V200H115.009V127.004C115.009 86.3397 168.065 82.5621 168.065 127.004V200H212V111.894C212 43.342 133.473 45.8975 115.009 79.5623L115.454 60.8966Z" fill="#E0E0E0"/>
</svg>
